<svg id="Layer_1" data-name="Layer 1" xmlns="http://www.w3.org/2000/svg" viewBox="0 0 100 100"><defs><style>.cls-1{fill:#fff;}</style></defs><title>email</title><circle cx="50" cy="50" r="50"/><path class="cls-1" d="M26.33,29.75C25.48,30,24,30.78,24,31S30,36.72,37.15,43.62L50.21,56.15l1.27-1.26L64.38,42.36C70.79,36.15,76,31,76,31a2.56,2.56,0,0,0-.8-.56c-1.66-.91,0-.86-25.28-.84C30.23,29.55,27,29.57,26.33,29.75Z"/><path class="cls-1" d="M21.05,36.23c0,.55-.07,7.16,0,14.7.05,13.72.07,14.43.49,14.89.11.11,15.57-15.13,15.5-15.29s-3.29-3.21-7.26-7l-7.92-7.6-.68-.66Z"/><path class="cls-1" d="M73.21,40.85l-7.86,7.64L63.1,50.69l2.51,2.62c4.6,4.79,10.89,11.1,11.82,11.88.54.43,1,.71,1,.64.44-.48.47-1.22.51-15.1,0-7.58,0-14.12-.05-14.55l-.11-.78Z"/><path class="cls-1" d="M32.82,61.93,25,69.71l.52.23c1.23.52,1.3.52,24.52.52s23.29,0,24.5-.52l.52-.21-.71-.54c-.9-.67-7.5-7.26-11.61-11.57-1.71-1.81-3.16-3.29-3.22-3.32S57.66,55.93,55.56,58a52.64,52.64,0,0,1-4.32,3.95,2.51,2.51,0,0,1-2.06,0,55.82,55.82,0,0,1-4.4-4c-2.14-2.06-3.95-3.76-4-3.78S37.14,57.63,32.82,61.93Z"/></svg>