<svg id="Layer_1" data-name="Layer 1" xmlns="http://www.w3.org/2000/svg" viewBox="0 0 64.08 64.08"><defs><style>.cls-1{fill:#231f20;stroke:#231f20;stroke-miterlimit:10;}.cls-2{fill:#fff;}</style></defs><title>features</title><path class="cls-1" d="M32,.5A31.54,31.54,0,1,0,63.58,32,31.54,31.54,0,0,0,32,.5Zm0,60.88A29.34,29.34,0,1,1,61.38,32,29.33,29.33,0,0,1,32,61.38Z"/><circle class="cls-1" cx="32.04" cy="32.04" r="29.74"/><path class="cls-2" d="M32.06,33.17l4.18-5.89-4.18,5.89,6.86,2.66-6.86-2.66,0,8.07,0-8.07-6.89,2.66,6.89-2.66-4.23-5.89,4.23,5.89M32,16.3A2.29,2.29,0,0,0,30,17.61l-3.56,7.63L18.23,26.5a2.29,2.29,0,0,0-1.29,3.86l6,6.19-1.39,8.58a2.29,2.29,0,0,0,.93,2.24,2.27,2.27,0,0,0,1.31.42,2.3,2.3,0,0,0,1.1-.28L32,43.66l7.14,3.84a2.28,2.28,0,0,0,3.35-2.38l-1.4-8.58,6-6.19a2.29,2.29,0,0,0-1.29-3.86l-8.19-1.26L34.1,17.61A2.28,2.28,0,0,0,32,16.3Z"/></svg>