<svg id="Layer_1" data-name="Layer 1" xmlns="http://www.w3.org/2000/svg" viewBox="0 0 100 100"><defs><style>.cls-1{fill:#fff;}</style></defs><title>resume</title><circle cx="50" cy="50" r="50"/><path class="cls-1" d="M71.49,37v-.1l0-.08h0l0-.08h0l0-.08h0l0-.07v0l0-.06,0,0-.06-.06h0L57.74,22.95h0l-.07-.07h0l-.06,0h0l-.07,0h0l-.08,0h0l-.09,0h0l-.09,0H29.52a1,1,0,0,0-1,1V76.34a1,1,0,0,0,1,1h41a1,1,0,0,0,1-1V37.12h0S71.49,37.05,71.49,37ZM68,36.11H58v-10Zm1.43,39.22h-39V24.67H56V37.12a1,1,0,0,0,1,1H69.48Z"/><path class="cls-1" d="M43.26,36.78a4.2,4.2,0,1,0-4.2-4.2A4.2,4.2,0,0,0,43.26,36.78Zm0-6.38a2.18,2.18,0,1,1-2.18,2.18A2.18,2.18,0,0,1,43.26,30.4Z"/><path class="cls-1" d="M38.57,44.44a1,1,0,0,0,1-1V41.66a2.08,2.08,0,0,1,2.08-2.08h3.23A2.08,2.08,0,0,1,47,41.66v1.77a1,1,0,0,0,2,0V41.66a4.1,4.1,0,0,0-4.1-4.09H41.65a4.1,4.1,0,0,0-4.09,4.09v1.77A1,1,0,0,0,38.57,44.44Z"/><path class="cls-1" d="M37.56,51.56a1,1,0,0,0,1,1H61.43a1,1,0,1,0,0-2H38.57A1,1,0,0,0,37.56,51.56Z"/><path class="cls-1" d="M61.43,65.49H38.57a1,1,0,0,0,0,2H61.43a1,1,0,1,0,0-2Z"/><path class="cls-1" d="M61.43,58H38.57a1,1,0,0,0,0,2H61.43a1,1,0,1,0,0-2Z"/></svg>