<svg id="Capa_1" data-name="Capa 1" xmlns="http://www.w3.org/2000/svg" viewBox="0 0 64.08 64.08"><defs><style>.cls-1{fill:#231f20;}.cls-2{fill:#fff;}</style></defs><title>tasks</title><circle class="cls-1" cx="32.04" cy="32.04" r="32.04"/><path class="cls-2" d="M41.8,19.47H22.28a1,1,0,0,0-1,1v23.2a1,1,0,0,0,1,1H41.8a1,1,0,0,0,1-1V20.44A1,1,0,0,0,41.8,19.47Zm-1,23.2H23.25V21.41H40.83V42.67Z"/><path class="cls-2" d="M29.52,25.61H26v3.54h3.54V25.61Zm-.43,1.18-1.57,1.57a.11.11,0,0,1-.15,0l-1-1a.11.11,0,0,1,0-.15l.23-.23a.11.11,0,0,1,.15,0l.65.66,1.27-1.27a.11.11,0,0,1,.15,0l.23.23A.11.11,0,0,1,29.09,26.78Z"/><rect class="cls-2" x="30.26" y="26.41" width="8.1" height="1.95"/><path class="cls-2" d="M29.52,30.23H26v3.54h3.54V30.23Zm-.43,1.17L27.51,33a.11.11,0,0,1-.15,0l-1-1a.11.11,0,0,1,0-.15l.23-.23a.11.11,0,0,1,.15,0l.65.66L28.71,31a.11.11,0,0,1,.15,0l.23.23A.11.11,0,0,1,29.09,31.4Z"/><rect class="cls-2" x="30.26" y="31.02" width="8.1" height="1.95"/><rect class="cls-2" x="25.98" y="34.95" width="3.54" height="3.54"/><rect class="cls-2" x="30.26" y="35.74" width="8.1" height="1.95"/></svg>